# xmcd
# 
# Track frame offsets:
#     150
#     22077
#     39042
#     50267
#     61692
#     81086
#     94866
#     110083
#     122141
#     130684
#     146316
#     166230
#     181239
#     194851
#     206947
# 
# Disc length: 2929
# 
# Revision: 1
# Processed by: cddbd v1.5.2PL0 Copyright (c) Steve Scherf et al.
# Submitted via: fre:ac v1.0.17
# 
DISCID=cf0b6f0f
DTITLE=Various Artist - Le coffret ideal BLUES – cd4
DYEAR=2012
DGENRE=Blues
TTITLE0=John Campbell - Down in the hole
TTITLE1=Buddy Guy - Stone crazy
TTITLE2=Lonnie Mack - Memphis
TTITLE3=Solomon Burke - If you need me
TTITLE4=Rodney Crowell - Blues in the daytime
TTITLE5=The Paul Butterfield Blues Band - Born in chicago
TTITLE6=Long John Baldry - Don't try to lay no boogie-woogie on the king of rock 'n' roll
TTITLE7=Louis Jordan - Caldonia
TTITLE8=John Lee Hooker - Hobo blues
TTITLE9=Jimmy Witherspoon - Kansas city
TTITLE10=Louis Armstrong - Basin street blues
TTITLE11=Johnny Otis - Harlem nocturne
TTITLE12=Pearl Bailey - Frankie and johnny
TTITLE13=T-Bone Walker - No worry blues
TTITLE14=Robert Johnson - Rambling on my mind
EXTD=
EXTT0=
EXTT1=
EXTT2=
EXTT3=
EXTT4=
EXTT5=
EXTT6=
EXTT7=
EXTT8=
EXTT9=
EXTT10=
EXTT11=
EXTT12=
EXTT13=
EXTT14=
PLAYORDER=
